HIERARCHY
ROOT Hips
{
	OFFSET 0.000000 0.000000 0.000000
	CHANNELS 6 Xposition Yposition Zposition Zrotation Yrotation Xrotation 
	JOINT LHipJoint
	{
		OFFSET 0.000000 0.000000 0.000000
		CHANNELS 3 Zrotation Yrotation Xrotation
		JOINT LeftUpLeg
		{
			OFFSET 1.363060 -1.794630 0.839290
			CHANNELS 3 Zrotation Yrotation Xrotation
			JOINT LeftLeg
			{
				OFFSET 2.448110 -6.726130 0.000000
				CHANNELS 3 Zrotation Yrotation Xrotation
				JOINT LeftFoot
				{
					OFFSET 2.562200 -7.039590 0.000000
					CHANNELS 3 Zrotation Yrotation Xrotation
					JOINT LeftToeBase
					{
						OFFSET 0.157640 -0.433110 2.322550
						CHANNELS 3 Zrotation Yrotation Xrotation
						End Site
						{
							OFFSET 0.000000 0.000000 0.000000
						}
					}
				}
			}
		}
	}
	JOINT RHipJoint
	{
		OFFSET 0.000000 0.000000 0.000000
		CHANNELS 3 Zrotation Yrotation Xrotation
		JOINT RightUpLeg
		{
			OFFSET -1.305520 -1.794630 0.839290
			CHANNELS 3 Zrotation Yrotation Xrotation
			JOINT RightLeg
			{
				OFFSET -2.542530 -6.985550 0.000000
				CHANNELS 3 Zrotation Yrotation Xrotation
				JOINT RightFoot
				{
					OFFSET -2.568260 -7.056230 0.000000
					CHANNELS 3 Zrotation Yrotation Xrotation
					JOINT RightToeBase
					{
						OFFSET -0.164730 -0.452590 2.363150
						CHANNELS 3 Zrotation Yrotation Xrotation
						End Site
						{
							OFFSET 0.000000 0.000000 0.000000
						}
					}
				}
			}
		}
	}
	JOINT LowerBack
	{
		OFFSET 0.000000 0.000000 0.000000
		CHANNELS 3 Zrotation Yrotation Xrotation
		JOINT Spine
		{
			OFFSET 0.028270 2.035590 -0.193380
			CHANNELS 3 Zrotation Yrotation Xrotation
			JOINT Spine1
			{
				OFFSET 0.056720 2.048850 -0.042750
				CHANNELS 3 Zrotation Yrotation Xrotation
				JOINT Neck
				{
					OFFSET 0.000000 0.000000 0.000000
					CHANNELS 3 Zrotation Yrotation Xrotation
					JOINT Neck1
					{
						OFFSET -0.054170 1.746240 0.172020
						CHANNELS 3 Zrotation Yrotation Xrotation
						JOINT Head
						{
							OFFSET 0.104070 1.761360 -0.123970
							CHANNELS 3 Zrotation Yrotation Xrotation
							End Site
							{
								OFFSET 0.000000 0.000000 0.000000
							}
						}
					}
				}
				JOINT LeftShoulder
				{
					OFFSET 0.000000 0.000000 0.000000
					CHANNELS 3 Zrotation Yrotation Xrotation
					JOINT LeftArm
					{
						OFFSET 3.362410 1.200890 -0.311210
						CHANNELS 3 Zrotation Yrotation Xrotation
						JOINT LeftForeArm
						{
							OFFSET 4.983000 -0.000000 -0.000000
							CHANNELS 3 Zrotation Yrotation Xrotation
							JOINT LeftHand
							{
								OFFSET 3.483560 -0.000000 -0.000000
								CHANNELS 3 Zrotation Yrotation Xrotation
								JOINT LeftFingerBase
								{
									OFFSET 0.000000 0.000000 0.000000
									CHANNELS 3 Zrotation Yrotation Xrotation
									JOINT LeftHandIndex1
									{
										OFFSET 0.715260 -0.000000 -0.000000
										CHANNELS 3 Zrotation Yrotation Xrotation
										End Site
										{
											OFFSET 0.000000 0.000000 0.000000
										}
									}
								}
								JOINT LThumb
								{
									OFFSET 0.000000 0.000000 0.000000
									CHANNELS 3 Zrotation Yrotation Xrotation
									End Site
									{
										OFFSET 0.000000 0.000000 0.000000
									}
								}
							}
						}
					}
				}
				JOINT RightShoulder
				{
					OFFSET 0.000000 0.000000 0.000000
					CHANNELS 3 Zrotation Yrotation Xrotation
					JOINT RightArm
					{
						OFFSET -3.136600 1.374050 -0.404650
						CHANNELS 3 Zrotation Yrotation Xrotation
						JOINT RightForeArm
						{
							OFFSET -5.241900 -0.000000 -0.000000
							CHANNELS 3 Zrotation Yrotation Xrotation
							JOINT RightHand
							{
								OFFSET -3.444170 -0.000000 -0.000000
								CHANNELS 3 Zrotation Yrotation Xrotation
								JOINT RightFingerBase
								{
									OFFSET 0.000000 0.000000 0.000000
									CHANNELS 3 Zrotation Yrotation Xrotation
									JOINT RightHandIndex1
									{
										OFFSET -0.622530 -0.000000 -0.000000
										CHANNELS 3 Zrotation Yrotation Xrotation
										End Site
										{
											OFFSET 0.000000 0.000000 0.000000
										}
									}
								}
								JOINT RThumb
								{
									OFFSET 0.000000 0.000000 0.000000
									CHANNELS 3 Zrotation Yrotation Xrotation
									End Site
									{
										OFFSET 0.000000 0.000000 0.000000
									}
								}
							}
						}
					}
				}
			}
		}
	}
}
MOTION
Frames: 4
Frame Time: 0.008333
7.127067 17.650113 4.903626 -177.794818 -3.952341 -179.659318 -1.524411 -0.500163 0.542430 -13.859074 -3.505800 -4.868575 1.308461 9.163070 25.714866 0.737026 -2.602581 -8.537481 0.212700 -2.969400 -8.193600 -1.399593 -0.054838 -1.364894 20.455322 3.706308 -14.055935 -3.122302 -10.732356 30.635440 -0.352517 1.568454 -7.479296 -0.033000 -1.172300 3.223100 -2.399467 1.422219 4.239111 -0.230401 1.454787 -2.277393 1.635575 0.945992 0.110634 -12.178221 -11.166957 -4.582288 7.540941 -15.494294 14.733560 4.077300 -8.205600 9.551300 -6.728994 3.423628 -1.699015 -69.391312 -3.965919 27.058127 19.928327 -35.024132 -6.812959 0.864445 -0.588783 7.555318 0.823495 33.534737 -0.056800 -7.125000 0.000000 0.000000 -37.572800 59.844200 -14.861800 1.451288 -2.274214 0.250820 85.647333 27.286697 41.976673 -26.288506 37.829482 -8.460494 -0.176100 -0.466171 -38.653366 -26.516105 23.004315 -10.996700 7.125000 0.000000 0.000000 1.888800 -4.285100 1.743300 
7.088939 17.655276 4.921796 -177.865946 -4.364145 -179.671104 -1.531845 -0.508317 0.536248 -14.072277 -3.507071 -4.910674 1.284190 9.109023 25.546985 0.763887 -2.859689 -8.417442 0.260800 -3.285800 -9.075400 -1.391178 -0.048509 -1.379157 20.177055 3.324386 -14.098805 -3.099516 -10.691058 30.501456 -0.340353 1.492818 -7.327659 -0.038000 -1.257900 3.458700 -2.465782 1.404997 4.332882 -0.241940 1.428540 -2.254686 1.656867 0.929566 0.139328 -12.608682 -11.331075 -4.598691 7.768227 -15.658647 14.619883 4.224600 -8.284500 9.624700 -6.750453 3.423150 -1.689260 -69.508865 -4.126390 26.595021 20.242149 -35.358322 -6.989093 0.862815 -0.589215 7.834204 0.900232 33.783287 -0.014300 -7.125000 0.000000 0.000000 -37.759000 60.056500 -15.143500 1.436269 -2.248169 0.262803 85.709380 26.460433 41.209377 -27.230029 38.742968 -8.999897 -0.162699 -0.474041 -38.229255 -26.390468 22.772802 -10.848000 7.125000 0.000000 0.000000 1.934300 -4.539000 1.776200 
7.056371 17.652000 4.947314 -178.173936 -4.552554 -179.663624 -1.540762 -0.517832 0.519369 -14.518734 -3.852523 -4.787390 1.269161 9.078810 25.448046 0.792746 -3.138135 -8.327775 0.135900 -2.376100 -6.546400 -1.373335 -0.036837 -1.389353 19.649736 3.126391 -14.176102 -3.078768 -10.654343 30.378460 -0.320882 1.355706 -7.095488 -0.037700 -1.252600 3.444000 -2.805857 1.481721 4.466327 -0.296652 1.515345 -2.217444 1.683993 0.966570 0.180919 -12.766171 -11.545621 -4.645363 7.719378 -15.803238 14.206602 4.215200 -8.330400 9.517400 -6.766766 3.411269 -1.678823 -69.519643 -4.179933 26.433212 20.720383 -35.874627 -7.266905 0.860342 -0.588143 7.708009 1.179701 34.044943 0.146100 -7.125000 0.000000 0.000000 -37.771100 60.334000 -15.402900 1.434077 -2.232281 0.275421 85.865788 25.480620 40.215105 -28.519716 39.949503 -9.757822 -0.149369 -0.481393 -37.459553 -26.343469 22.726267 -10.818800 7.125000 0.000000 0.000000 1.953900 -4.575400 1.792800 
7.038598 17.652993 4.978789 -177.931654 -4.548481 -179.597992 -1.535793 -0.521059 0.510296 -14.251479 -4.078305 -4.836877 1.263161 9.046284 25.363094 0.840750 -3.610159 -8.067325 0.011600 -0.694700 -1.909200 -1.382414 -0.048566 -1.372164 19.848929 3.551455 -14.252959 -3.068765 -10.646386 30.337715 -0.296206 0.980546 -7.143464 -0.037200 -1.244500 3.421900 -2.687224 1.701849 4.523678 -0.310483 1.801266 -2.229223 1.532998 1.122882 0.119331 -11.341819 -11.376637 -4.919601 6.477200 -15.467633 13.941205 3.506700 -8.128700 9.102700 -6.705899 3.332010 -1.680358 -69.312543 -4.163701 26.689054 21.186483 -36.369604 -7.546284 0.857516 -0.580886 7.315259 1.060310 34.231761 0.082800 -7.125000 0.000000 0.000000 -38.080000 60.452900 -15.660800 1.510605 -2.254528 0.255176 86.296968 24.338588 38.973420 -30.046567 41.299048 -10.683279 -0.133684 -0.496654 -37.161568 -26.530705 22.494718 -10.819600 7.125000 0.000000 0.000000 1.809000 -4.758000 1.653500 
